HIERARCHY
ROOT Hips
{
	OFFSET 0.00000 0.00000 0.00000
	CHANNELS 6 Xposition Yposition Zposition Zrotation Yrotation Xrotation 
	JOINT LHipJoint
	{
		OFFSET 0 0 0
		CHANNELS 3 Zrotation Yrotation Xrotation
		JOINT LeftUpLeg
		{
			OFFSET 1.44361 -1.63093 0.70831
			CHANNELS 3 Zrotation Yrotation Xrotation
			JOINT LeftLeg
			{
				OFFSET 2.20103 -6.04728 0.00000
				CHANNELS 3 Zrotation Yrotation Xrotation
				JOINT LeftFoot
				{
					OFFSET 2.54154 -6.98283 0.00000
					CHANNELS 3 Zrotation Yrotation Xrotation
					JOINT LeftToeBase
					{
						OFFSET 0.05971 -0.16406 1.77582
						CHANNELS 3 Zrotation Yrotation Xrotation
						End Site
						{
							OFFSET 0.00000 -0.00000 0.90832
						}
					}
				}
			}
		}
	}
	JOINT RHipJoint
	{
		OFFSET 0 0 0
		CHANNELS 3 Zrotation Yrotation Xrotation
		JOINT RightUpLeg
		{
			OFFSET -1.65838 -1.63093 0.70830
			CHANNELS 3 Zrotation Yrotation Xrotation
			JOINT RightLeg
			{
				OFFSET -2.26926 -6.23475 0.00000
				CHANNELS 3 Zrotation Yrotation Xrotation
				JOINT RightFoot
				{
					OFFSET -2.34808 -6.45129 0.00000
					CHANNELS 3 Zrotation Yrotation Xrotation
					JOINT RightToeBase
					{
						OFFSET -0.18633 -0.51195 1.68539
						CHANNELS 3 Zrotation Yrotation Xrotation
						End Site
						{
							OFFSET -0.00000 -0.00000 0.88927
						}
					}
				}
			}
		}
	}
	JOINT LowerBack
	{
		OFFSET 0 0 0
		CHANNELS 3 Zrotation Yrotation Xrotation
		JOINT Spine
		{
			OFFSET -0.10393 2.01691 0.06920
			CHANNELS 3 Zrotation Yrotation Xrotation
			JOINT Spine1
			{
				OFFSET 0.04092 2.01302 -0.05283
				CHANNELS 3 Zrotation Yrotation Xrotation
				JOINT Neck
				{
					OFFSET 0 0 0
					CHANNELS 3 Zrotation Yrotation Xrotation
					JOINT Neck1
					{
						OFFSET -0.02870 1.58978 -0.03113
						CHANNELS 3 Zrotation Yrotation Xrotation
						JOINT Head
						{
							OFFSET 0.11532 1.54326 -0.29195
							CHANNELS 3 Zrotation Yrotation Xrotation
							End Site
							{
								OFFSET 0.04056 1.59999 -0.09535
							}
						}
					}
				}
				JOINT LeftShoulder
				{
					OFFSET 0 0 0
					CHANNELS 3 Zrotation Yrotation Xrotation
					JOINT LeftArm
					{
						OFFSET 3.30641 1.15764 0.01104
						CHANNELS 3 Zrotation Yrotation Xrotation
						JOINT LeftForeArm
						{
							OFFSET 4.63208 -0.00000 0.00000
							CHANNELS 3 Zrotation Yrotation Xrotation
							JOINT LeftHand
							{
								OFFSET 3.41924 -0.00000 -0.00000
								CHANNELS 3 Zrotation Yrotation Xrotation
								JOINT LeftFingerBase
								{
									OFFSET 0 0 0
									CHANNELS 3 Zrotation Yrotation Xrotation
									JOINT LeftHandIndex1
									{
										OFFSET 0.62537 -0.00000 -0.00000
										CHANNELS 3 Zrotation Yrotation Xrotation
										End Site
										{
											OFFSET 0.50419 -0.00000 -0.00000
										}
									}
								}
								JOINT LThumb
								{
									OFFSET 0 0 0
									CHANNELS 3 Zrotation Yrotation Xrotation
									End Site
									{
										OFFSET 0.51189 -0.00000 0.51189
									}
								}
							}
						}
					}
				}
				JOINT RightShoulder
				{
					OFFSET 0 0 0
					CHANNELS 3 Zrotation Yrotation Xrotation
					JOINT RightArm
					{
						OFFSET -3.78081 1.02180 -0.16609
						CHANNELS 3 Zrotation Yrotation Xrotation
						JOINT RightForeArm
						{
							OFFSET -4.40640 -0.00000 -0.00000
							CHANNELS 3 Zrotation Yrotation Xrotation
							JOINT RightHand
							{
								OFFSET -3.44675 -0.00000 0.00000
								CHANNELS 3 Zrotation Yrotation Xrotation
								JOINT RightFingerBase
								{
									OFFSET 0 0 0
									CHANNELS 3 Zrotation Yrotation Xrotation
									JOINT RightHandIndex1
									{
										OFFSET -0.51367 -0.00000 -0.00000
										CHANNELS 3 Zrotation Yrotation Xrotation
										End Site
										{
											OFFSET -0.41414 -0.00000 -0.00000
										}
									}
								}
								JOINT RThumb
								{
									OFFSET 0 0 0
									CHANNELS 3 Zrotation Yrotation Xrotation
									End Site
									{
										OFFSET -0.42046 -0.00000 0.42046
									}
								}
							}
						}
					}
				}
			}
		}
	}
}
MOTION
Frames: 11
Frame Time: 0.0666667
0.00 0.00 0.00 0 0 0 0 0 0 -21 0 0 0 0 0 0 0 0 0 0 0 0 0 0 21 0 0 0 0 0 0 0 0 0 0 0 0 0 0 0 0 0 0 0 0 0 0 -16 0 0 21 0 0 11 0 0 0 -8 0 0 0 0 0 0 0 0 0 0 0 0 0 0 0 0 0 0 0 0 8 0 0 0 0 0 0 0 0 0 0 0 0 0 0 0 0 0
0.00 0.00 0.00 -178.9830 2.8884 -167.8800 0.0000 0.0000 0.0000 -20.8887 -9.5029 -7.1811 0.6141 5.0153 13.9521 1.0521 -5.4904 -18.3334 7.3488 -15.6187 -50.1816 0.0000 0.0000 0.0000 18.7013 9.8773 -13.1940 -1.6989 -8.2086 23.3495 -1.5385 -0.2174 -23.5475 -1.0466 6.5057 -18.2590 -6.1436 1.5150 -8.6975 1.9347 2.5895 -0.0561 5.8120 1.1473 4.4656 -4.2019 0.2074 -8.9315 8.1608 -2.9547 25.6880 3.1343 -1.6145 9.7309 0.0000 0.0000 0.0000 -90.9625 -2.2438 17.1562 7.0279 -11.9652 -0.7374 -0.0000 -0.0000 35.6375 29.7270 -17.5907 -9.7910 -7.1250 0.0000 -0.0000 1.1394 9.9265 -0.9261 0.0000 0.0000 0.0000 92.5987 -6.6704 -9.2461 -14.4961 23.4394 -3.0226 0.0000 0.0000 16.6129 -24.2486 -36.6999 15.0664 7.1250 -0.0000 -0.0000 13.9449 -68.7750 -8.0080
0.00 0.00 0.00 -178.6080 9.5343 -160.3900 0.0000 0.0000 0.0000 -22.2665 -7.1570 -3.7425 2.7365 10.2558 29.8092 0.3579 3.9021 -13.4190 9.7392 -17.2606 -58.6132 0.0000 0.0000 0.0000 16.9278 15.1087 -34.2396 -2.5573 -9.9413 28.7867 -0.7692 2.0530 -16.0009 -0.4571 4.3370 -12.0268 -4.9283 -1.8014 -3.3760 3.9066 -2.2416 1.2163 6.7130 -1.2507 3.5135 -3.6210 0.5374 -5.8214 4.6489 1.0580 17.1005 2.1768 0.8856 6.0811 0.0000 0.0000 0.0000 -92.8394 -11.1133 53.6879 18.5090 -28.8040 -4.7920 -0.0000 -0.0000 15.3040 30.1761 -18.1675 -10.2759 -7.1250 0.0000 -0.0000 1.3586 9.1979 -1.1243 0.0000 0.0000 0.0000 92.7408 -12.4266 -23.9395 -11.7102 19.3687 -2.0052 0.0000 0.0000 22.8779 -22.0526 -35.7689 13.3214 7.1250 -0.0000 -0.0000 15.7032 -67.2149 -8.4816
0.00 0.00 0.00 -177.8010 10.5932 -159.5990 0.0000 0.0000 0.0000 -20.7922 -7.1424 -13.1528 6.5368 14.9291 47.1000 -0.0478 6.8944 -8.5771 9.4531 -17.0906 -57.6442 0.0000 0.0000 0.0000 19.1671 14.5020 -31.3779 -2.7850 -10.3385 30.0801 -1.1515 4.3922 -19.3000 -0.8284 5.8067 -16.2246 -3.7912 -1.9180 -2.9817 3.8545 -2.4488 0.9136 6.0023 -1.3038 2.9523 -3.6818 1.1878 -5.6158 3.7875 2.0932 17.1870 1.9801 1.3170 6.0399 0.0000 -0.0000 0.0000 -91.4120 -11.1772 51.4271 18.7396 -29.0938 -4.9036 -0.0000 -0.0000 15.2835 30.1340 -18.8804 -10.6383 -7.1250 0.0000 -0.0000 1.2392 8.4082 -1.0449 0.0000 -0.0000 0.0000 91.4284 -11.3926 -18.5684 -12.6627 20.7910 -2.3322 0.0000 0.0000 19.8499 -21.1855 -35.8221 12.7808 7.1250 -0.0000 -0.0000 16.8189 -67.0076 -9.0184
0.00 0.00 0.00 -177.2260 12.1678 -161.0440 0.0000 0.0000 0.0000 -17.3508 -9.8505 -29.1788 11.1955 18.0294 63.4149 1.1871 7.3158 -24.4330 9.0395 -16.8330 -56.2265 0.0000 0.0000 0.0000 21.9480 13.9181 -24.8231 -3.8055 -11.8970 35.3685 -1.9310 5.9852 -25.0564 -0.8066 5.7316 -16.0076 -3.6177 -0.9740 -0.9223 3.1833 -1.2262 1.8955 5.2922 -0.6928 2.6223 -3.0221 1.5873 -6.3813 1.7982 3.0061 18.3847 1.3347 1.6691 6.5682 -0.0000 -0.0000 0.0000 -86.5945 -10.4284 42.1102 17.3650 -27.3364 -4.2536 -0.0000 -0.0000 16.5198 34.4436 -19.1352 -12.6703 -7.1250 0.0000 -0.0000 3.9440 7.2068 -3.4264 -0.0000 -0.0000 0.0000 87.4434 -5.1737 -5.5552 -14.4346 23.3526 -2.9982 0.0000 0.0000 17.0056 -23.2275 -35.4444 13.9759 7.1250 -0.0000 -0.0000 13.9132 -67.2548 -7.5111
0.00 0.00 0.00 -171.2510 27.9467 -160.5110 0.0000 0.0000 0.0000 13.1372 -5.9371 -55.6965 3.7002 11.7505 34.8548 -0.0675 12.2548 -16.5124 1.5949 -7.9657 -22.6099 0.0000 0.0000 0.0000 21.5767 12.5700 0.4928 -2.4205 -9.6919 27.9847 -0.2955 9.3724 -10.9194 -3.4100 11.3309 -33.4043 -2.6502 7.0785 2.3712 -1.0070 9.5312 2.9448 0.3072 4.7699 1.4625 -2.8946 1.4264 -8.3417 1.8227 2.8354 18.9318 1.3478 1.5934 7.0965 0.0000 -0.0000 0.0000 -56.5686 19.1672 15.0664 10.2825 -17.1802 -1.5574 -0.0000 -0.0000 20.0489 34.1230 -16.8080 -11.0866 -7.1250 0.0000 -0.0000 4.0979 9.9739 -3.3350 0.0000 -0.0000 0.0000 73.8538 39.2557 38.8958 -30.6992 41.4852 -11.8701 0.0000 -0.0000 -0.3723 -23.5628 -32.3035 13.1193 7.1250 -0.0000 -0.0000 10.7615 -64.2686 -5.0506
0.00 0.00 0.00 -167.6370 31.4296 -156.8180 0.0000 0.0000 0.0000 19.1054 -5.8805 -48.2759 1.4169 7.5281 21.2897 0.6319 12.1047 -23.8616 0.1994 2.8758 7.9330 0.0000 0.0000 0.0000 19.5323 8.1709 2.6876 -1.1498 -6.8085 19.1494 0.0771 5.9561 5.7509 -1.4813 7.6899 -21.7760 -2.3671 9.0482 -0.4810 -1.1919 12.1800 2.0856 0.3309 6.0630 2.1913 -2.7551 0.8247 -8.6603 3.5610 1.7114 19.5449 1.8124 1.2402 7.3604 -0.0000 -0.0000 0.0000 -54.0445 25.0108 13.6054 10.3975 -17.3590 -1.5915 -0.0000 -0.0000 16.0527 32.4484 -17.0665 -10.5697 -7.1250 0.0000 -0.0000 2.9758 10.0099 -2.4166 -0.0000 -0.0000 0.0000 74.4842 43.2117 41.0092 -32.4449 42.8990 -13.0427 0.0000 -0.0000 -3.0287 -22.6663 -30.9980 12.1381 7.1250 -0.0000 -0.0000 10.8807 -62.7265 -4.7145
0.00 0.00 0.00 -164.0890 34.3762 -153.1390 0.0000 0.0000 0.0000 27.1032 -15.4822 -35.3299 0.1142 2.1788 6.0001 5.0832 -13.2256 -41.1816 2.9822 10.6662 31.1621 0.0000 0.0000 0.0000 13.8133 0.0242 4.3696 -0.6792 -5.2695 14.6788 -1.0237 -11.5793 18.6329 -0.0111 -0.6804 1.8699 -2.8804 10.7465 -5.1688 -0.9377 14.5462 0.9907 1.6823 7.1792 3.4030 -2.8679 -0.4290 -10.0081 5.6564 -0.2073 22.4171 2.4380 0.6488 8.6298 -0.0000 0.0000 0.0000 -51.2641 33.5095 13.2118 9.3766 -15.7585 -1.3005 -0.0000 -0.0000 14.0559 30.3109 -17.7660 -10.1141 -7.1250 0.0000 -0.0000 1.4968 9.6231 -1.2259 -0.0000 0.0000 0.0000 75.2939 47.6125 44.9740 -31.4299 42.0880 -12.3570 0.0000 -0.0000 -3.4762 -21.2829 -30.7017 11.2486 7.1250 -0.0000 -0.0000 12.2698 -62.0750 -5.1370
0.00 0.00 0.00 -160.9220 35.4183 -154.1990 0.0000 0.0000 0.0000 23.9596 -15.0979 -27.5911 0.0423 1.3273 3.6499 7.3979 -24.1980 -50.8512 2.3875 9.6305 27.7881 0.0000 0.0000 0.0000 9.8144 0.6041 8.0066 -3.1359 -10.9119 31.9834 0.7333 -23.7096 11.0596 -0.2917 3.4732 -9.5991 -1.0857 11.4433 -5.9140 0.0720 15.3408 0.4760 1.9496 7.6093 3.4250 -2.1378 -1.6444 -10.4126 6.8321 -1.9245 26.3931 2.6772 0.3107 10.2021 0.0000 0.0000 0.0000 -48.5084 40.6107 8.0742 8.0977 -13.7112 -0.9752 -0.0000 -0.0000 21.3898 29.6582 -18.8525 -10.4258 -7.1250 0.0000 -0.0000 0.9375 8.5309 -0.7882 0.0000 0.0000 0.0000 77.0437 45.4075 47.1954 -30.4828 41.3036 -11.7270 0.0000 -0.0000 -2.4788 -21.4843 -32.9687 12.0893 7.1250 -0.0000 -0.0000 13.7615 -64.3549 -6.5094
0.00 0.00 0.00 -160.0920 32.7670 -153.4870 0.0000 0.0000 0.0000 21.0930 -7.9643 -33.2084 0.2412 3.1602 8.7252 6.7929 -13.9299 -48.0977 1.5696 7.9054 22.4271 0.0000 0.0000 0.0000 9.4015 -0.3503 8.2656 -4.4027 -12.6778 38.1742 0.0514 -21.9230 15.0554 -0.1310 2.3332 -6.4276 0.8686 10.7722 -7.2938 0.3882 14.3012 -0.1151 1.4528 7.1220 3.9833 -2.5012 -2.0714 -9.9563 7.7847 -2.5919 26.8360 3.0266 0.1304 10.3304 -0.0000 0.0000 0.0000 -47.4505 42.1056 6.1300 7.6923 -13.0529 -0.8813 -0.0000 -0.0000 22.0961 29.8506 -18.6838 -10.4169 -7.1250 0.0000 -0.0000 1.0827 8.6823 -0.9070 -0.0000 0.0000 0.0000 76.4917 43.4203 46.4717 -30.1206 40.9965 -11.4886 0.0000 -0.0000 -2.1109 -20.9440 -31.9908 11.4625 7.1250 -0.0000 -0.0000 13.6054 -63.2553 -6.0848
0.00 0.00 0.00 -165.0650 28.2174 -161.1350 0.0000 0.0000 0.0000 6.6533 -2.4956 -41.1948 2.5763 9.9753 28.8967 -0.2248 14.3383 -17.6219 4.8940 -13.2634 -40.3626 0.0000 0.0000 0.0000 3.0214 0.7077 14.4010 -10.0662 -17.4469 59.7094 -1.9584 -19.4384 26.7796 -0.1001 -2.0407 5.6181 -2.6106 8.8692 -4.1007 0.9524 11.9493 0.6494 3.0340 5.9281 2.2044 -3.2380 -3.6510 -9.9734 9.1818 -4.9963 27.4557 3.4114 -0.8130 10.7818 0.0000 0.0000 0.0000 -47.2266 40.7809 -8.5286 6.1948 -10.5866 -0.5745 -0.0000 -0.0000 34.6008 31.3350 -18.3526 -10.8521 -7.1250 0.0000 -0.0000 2.0807 8.7657 -1.7405 0.0000 0.0000 0.0000 71.6157 35.1925 40.0496 -28.4103 39.4913 -10.3836 0.0000 0.0000 0.6379 -21.7346 -30.4624 11.4258 7.1250 -0.0000 -0.0000 11.5903 -61.9525 -4.8147
